<?xml version="1.0" encoding="UTF-8"?>
<svg width="62px" height="62px" viewBox="0 0 62 62" version="1.1" xmlns="http://www.w3.org/2000/svg" xmlns:xlink="http://www.w3.org/1999/xlink">
    <!-- Generator: Sketch 47.1 (45422) - http://www.bohemiancoding.com/sketch -->
    <title>Left</title>
    <desc>Created with Sketch.</desc>
    <defs></defs>
    <g id="Index" stroke="none" stroke-width="1" fill="none" fill-rule="evenodd" opacity="0.300000012">
        <g id="Index-(Desktop)" transform="translate(-199.000000, -461.000000)">
            <g id="#1" transform="translate(0.000000, -2.000000)">
                <g id="Arrows" transform="translate(200.000000, 464.000000)">
                    <g id="Left">
                        <circle id="Border" stroke="#FFFFFF" stroke-width="2" cx="30" cy="30" r="30"></circle>
                        <path d="M27.9999701,35 C27.6773735,35 27.3548167,34.8799529 27.1088656,34.6403633 L19.3692552,27.0971947 C18.8769149,26.6173556 18.8769149,25.8393787 19.3692552,25.3597337 C19.8613964,24.8800888 20.6594824,24.8800888 21.1518626,25.3597337 L27.9999701,32.0343466 L34.8481175,25.3599667 C35.3404578,24.8803217 36.1384642,24.8803217 36.6305655,25.3599667 C37.1231448,25.8396117 37.1231448,26.6175885 36.6305655,27.0974276 L28.8910746,34.6405963 C28.6450041,34.8802246 28.3224472,35 27.9999701,35 Z" id="Left-Arrow" fill="#FFFFFF" fill-rule="nonzero" transform="translate(28.000000, 30.000000) rotate(-270.000000) translate(-28.000000, -30.000000) "></path>
                    </g>
                </g>
            </g>
        </g>
    </g>
</svg>
