<?xml version="1.0" encoding="UTF-8"?>
<svg width="62px" height="62px" viewBox="0 0 62 62" version="1.1" xmlns="http://www.w3.org/2000/svg" xmlns:xlink="http://www.w3.org/1999/xlink">
    <!-- Generator: Sketch 47.1 (45422) - http://www.bohemiancoding.com/sketch -->
    <title>Right</title>
    <desc>Created with Sketch.</desc>
    <defs></defs>
    <g id="Index" stroke="none" stroke-width="1" fill="none" fill-rule="evenodd">
        <g id="Index-(Desktop)" transform="translate(-1659.000000, -461.000000)">
            <g id="#1" transform="translate(0.000000, -2.000000)">
                <g id="Arrows" transform="translate(200.000000, 464.000000)">
                    <g id="Right" transform="translate(1460.000000, 0.000000)">
                        <circle id="Border" stroke="#FFFFFF" stroke-width="2" cx="30" cy="30" r="30"></circle>
                        <path d="M29.9999701,35 C29.6773735,35 29.3548167,34.8799529 29.1088656,34.6403633 L21.3692552,27.0971947 C20.8769149,26.6173556 20.8769149,25.8393787 21.3692552,25.3597337 C21.8613964,24.8800888 22.6594824,24.8800888 23.1518626,25.3597337 L29.9999701,32.0343466 L36.8481175,25.3599667 C37.3404578,24.8803217 38.1384642,24.8803217 38.6305655,25.3599667 C39.1231448,25.8396117 39.1231448,26.6175885 38.6305655,27.0974276 L30.8910746,34.6405963 C30.6450041,34.8802246 30.3224472,35 29.9999701,35 Z" id="Left-Arrow" fill="#FFFFFF" fill-rule="nonzero" transform="translate(30.000000, 30.000000) rotate(-90.000000) translate(-30.000000, -30.000000) "></path>
                    </g>
                </g>
            </g>
        </g>
    </g>
</svg>