<?xml version="1.0" encoding="UTF-8"?>
<svg width="6px" height="10px" viewBox="0 0 6 10" version="1.1" xmlns="http://www.w3.org/2000/svg" xmlns:xlink="http://www.w3.org/1999/xlink">
    <!-- Generator: Sketch 47.1 (45422) - http://www.bohemiancoding.com/sketch -->
    <title>Arrow</title>
    <desc>Created with Sketch.</desc>
    <defs></defs>
    <g id="Press" stroke="none" stroke-width="1" fill="none" fill-rule="evenodd">
        <g id="Press-(Desktop)" transform="translate(-525.000000, -249.000000)" fill="#FFFFFF">
            <g id="#1" transform="translate(0.000000, -2.000000)">
                <g id="Breadcrumbs" transform="translate(390.000000, 243.000000)">
                    <path d="M142.900011,10.6184993 L142.399083,10.1031254 C142.3323,10.0342908 142.255433,10 142.168481,10 C142.081774,10 142.004907,10.0342908 141.938125,10.1031254 L138.000061,14.1546248 L134.062121,10.1032519 C133.995339,10.0344173 133.918472,10.0001265 133.831642,10.0001265 C133.744813,10.0001265 133.667946,10.0344173 133.601163,10.1032519 L133.100235,10.6186258 C133.03333,10.6873339 133,10.7664178 133,10.855751 C133,10.9450841 133.033453,11.024168 133.100235,11.0928761 L137.769583,15.8970011 C137.836365,15.9657092 137.913232,16 138.000061,16 C138.086891,16 138.163635,15.9657092 138.230417,15.8970011 L142.900011,11.0928761 C142.966793,11.024168 143,10.9450841 143,10.855751 C143,10.7664178 142.966793,10.6873339 142.900011,10.6184993 L142.900011,10.6184993 Z" id="Arrow" transform="translate(138.000000, 13.000000) rotate(-90.000000) translate(-138.000000, -13.000000) "></path>
                </g>
            </g>
        </g>
    </g>
</svg>