<?xml version="1.0" encoding="UTF-8"?>
<svg width="13px" height="13px" viewBox="0 0 13 13" version="1.1" xmlns="http://www.w3.org/2000/svg" xmlns:xlink="http://www.w3.org/1999/xlink">
    <!-- Generator: Sketch 47.1 (45422) - http://www.bohemiancoding.com/sketch -->
    <title>Next</title>
    <desc>Created with Sketch.</desc>
    <defs>
        <path d="M5.7022228,0.300031562 C6.09764721,-0.100010521 6.73708566,-0.100010521 7.13251007,0.300031562 C7.52725855,0.700073644 7.52725855,1.34834697 7.13251007,1.74838905 L2.44081633,6.49965808 L7.13251007,11.251611 C7.52725855,11.651653 7.52725855,12.2999264 7.13251007,12.6999684 C6.73708566,13.1000105 6.09764721,13.1000105 5.7022228,12.6999684 L0.296061354,7.22383683 C-0.0986871182,6.82379475 -0.0986871182,6.17552142 0.296061354,5.77547934 L5.7022228,0.300031562 Z M11.2736514,0.300031562 C11.6690758,-0.100010521 12.3085142,-0.100010521 12.7039386,0.300031562 C13.0986871,0.700073644 13.0986871,1.34834697 12.7039386,1.74838905 L8.0122449,6.49965808 L12.7039386,11.251611 C13.0986871,11.651653 13.0986871,12.2999264 12.7039386,12.6999684 C12.3085142,13.1000105 11.6690758,13.1000105 11.2736514,12.6999684 L5.86748993,7.22383683 C5.47274145,6.82379475 5.47274145,6.17552142 5.86748993,5.77547934 L11.2736514,0.300031562 Z" id="path-1"></path>
    </defs>
    <g id="Press" stroke="none" stroke-width="1" fill="none" fill-rule="evenodd">
        <g id="Press-(Desktop)" transform="translate(-1138.000000, -1909.000000)">
            <g id="#2" transform="translate(390.000000, 622.000000)">
                <g id="Pagination" transform="translate(379.000000, 1273.000000)">
                    <g id="Next" transform="translate(369.000000, 14.000000)">
                        <mask id="mask-2" fill="white">
                            <use xlink:href="#path-1"></use>
                        </mask>
                        <use id="Arrow" fill="#17171D" opacity="0.200000003" transform="translate(6.500000, 6.500000) rotate(-180.000000) translate(-6.500000, -6.500000) " xlink:href="#path-1"></use>
                    </g>
                </g>
            </g>
        </g>
    </g>
</svg>