<?xml version="1.0" encoding="UTF-8"?>
<svg width="13px" height="14px" viewBox="0 0 13 14" version="1.1" xmlns="http://www.w3.org/2000/svg" xmlns:xlink="http://www.w3.org/1999/xlink">
    <!-- Generator: Sketch 47.1 (45422) - http://www.bohemiancoding.com/sketch -->
    <title>Arrow</title>
    <desc>Created with Sketch.</desc>
    <defs>
        <path d="M5.7022228,0.800031562 C6.09764721,0.399989479 6.73708566,0.399989479 7.13251007,0.800031562 C7.52725855,1.20007364 7.52725855,1.84834697 7.13251007,2.24838905 L2.44081633,6.99965808 L7.13251007,11.751611 C7.52725855,12.151653 7.52725855,12.7999264 7.13251007,13.1999684 C6.73708566,13.6000105 6.09764721,13.6000105 5.7022228,13.1999684 L0.296061354,7.72383683 C-0.0986871182,7.32379475 -0.0986871182,6.67552142 0.296061354,6.27547934 L5.7022228,0.800031562 Z M11.2736514,0.800031562 C11.6690758,0.399989479 12.3085142,0.399989479 12.7039386,0.800031562 C13.0986871,1.20007364 13.0986871,1.84834697 12.7039386,2.24838905 L8.0122449,6.99965808 L12.7039386,11.751611 C13.0986871,12.151653 13.0986871,12.7999264 12.7039386,13.1999684 C12.3085142,13.6000105 11.6690758,13.6000105 11.2736514,13.1999684 L5.86748993,7.72383683 C5.47274145,7.32379475 5.47274145,6.67552142 5.86748993,6.27547934 L11.2736514,0.800031562 Z" id="path-1"></path>
    </defs>
    <g id="Press" stroke="none" stroke-width="1" fill="none" fill-rule="evenodd">
        <g id="Press-(Desktop)" transform="translate(-769.000000, -1908.000000)">
            <g id="#2" transform="translate(390.000000, 622.000000)">
                <g id="Pagination" transform="translate(379.000000, 1273.000000)">
                    <g id="Prev" transform="translate(0.000000, 13.000000)">
                        <mask id="mask-2" fill="white">
                            <use xlink:href="#path-1"></use>
                        </mask>
                        <use id="Arrow" fill="#17171D" opacity="0.200000003" xlink:href="#path-1"></use>
                    </g>
                </g>
            </g>
        </g>
    </g>
</svg>