<?xml version="1.0" encoding="UTF-8"?>
<svg width="48px" height="64px" viewBox="0 0 48 64" version="1.1" xmlns="http://www.w3.org/2000/svg" xmlns:xlink="http://www.w3.org/1999/xlink">
    <!-- Generator: Sketch 47.1 (45422) - http://www.bohemiancoding.com/sketch -->
    <title>Boat</title>
    <desc>Created with Sketch.</desc>
    <defs></defs>
    <g id="Index" stroke="none" stroke-width="1" fill="none" fill-rule="evenodd">
        <g transform="translate(-390.000000, -1100.000000)" id="#2" fill-rule="nonzero" fill="#0690AF">
            <g transform="translate(-94.000000, 1090.000000)">
                <g id="Title" transform="translate(484.000000, 0.000000)">
                    <path d="M12.9694002,14.7416077 C12.9694002,12.1229294 14.6671116,10 16.7615069,10 C18.5042535,10 19.9570276,11.4784036 20.4007229,13.4809071 C20.4524145,13.4775258 20.5010899,13.4616598 20.5535096,13.4616598 C22.1278683,13.4616598 23.4040381,15.0574982 23.4040381,17.0260587 C23.4040381,17.5062017 23.3257206,17.9629359 23.1881189,18.3809152 L23.189263,18.3807852 C24.1652676,18.3807852 24.9564513,19.3699423 24.9564513,20.5903276 C24.9564513,21.8105828 24.1653716,22.8 23.189263,22.8 C22.2133623,22.8 21.4221787,21.8108429 21.4221787,20.5903276 C21.4221787,20.5243924 21.4330995,20.4622287 21.4376758,20.3977241 C21.1577921,20.5125579 20.8641794,20.5903276 20.5536136,20.5903276 C19.6017387,20.5903276 18.7641677,20.0010729 18.2464193,19.1045111 C17.7902432,19.3475738 17.28872,19.4832155 16.7615069,19.4832155 C14.6672156,19.4832155 12.9694002,17.3602861 12.9694002,14.7416077 Z M14.6905132,32.7008627 L9.49669993,32.7008627 C8.58549185,32.7008627 7.84683189,33.4455633 7.84683189,34.3642231 L7.84683189,45.5008627 L23.999688,37.7001713 L40.1531681,45.5008627 L40.1531681,34.3642231 C40.1531681,33.4455633 39.4145082,32.7008627 38.5034041,32.7008627 L33.3094868,32.7008627 L14.6905132,32.7008627 Z M33.3094868,34.5647059 L33.3094868,33.1621223 C33.3094868,31.8980512 32.5708268,30.8733471 31.6597227,30.8733471 L27.6524249,30.8733471 L26.9359185,21.7647059 L21.0641855,21.7647059 L20.3477831,30.8733471 L16.3404853,30.8733471 C15.4292772,30.8733471 14.6906172,31.8980512 14.6906172,33.1621223 L14.6906172,34.5647059 L33.3094868,34.5647059 Z M24,39.5262745 L0,51.0851765 L7.10692385,71.9309804 C10.4061399,70.3883922 14.6461021,68.9498562 18.9923598,68.9498562 C25.976555,68.9498562 31.5898298,72.2945882 38.9631164,74 L40.1878025,74 L48,51.0851765 L24,39.5262745 Z" id="Boat"></path>
                </g>
            </g>
        </g>
    </g>
</svg>