<?xml version="1.0" encoding="UTF-8"?>
<svg width="138px" height="41px" viewBox="0 0 138 41" version="1.1" xmlns="http://www.w3.org/2000/svg" xmlns:xlink="http://www.w3.org/1999/xlink">
    <!-- Generator: Sketch 47.1 (45422) - http://www.bohemiancoding.com/sketch -->
    <title>Ship_2</title>
    <desc>Created with Sketch.</desc>
    <defs></defs>
    <g id="Index" stroke="none" stroke-width="1" fill="none" fill-rule="evenodd">
        <g transform="translate(-653.000000, -2244.000000)" id="#3" fill-rule="nonzero" fill="#0690AF">
            <g transform="translate(389.000000, 2210.000000)">
                <g id="Title" transform="translate(264.000000, 0.000000)">
                    <g id="Ships" transform="translate(0.000000, 24.000000)">
                        <path d="M9.85785142,34.4691276 L13.234322,39.3328923 L53.7084397,39.3328923 L55.1956161,36.1485394 C55.6262044,35.2265394 56.5516161,34.6373629 57.5692632,34.6373629 L58.0507926,34.6373629 L58.0507926,23.96701 C58.0507926,23.5775982 58.2727926,23.0303041 58.5438514,22.7507747 L60.5085573,20.7261865 C60.7914985,20.4345394 61.3554985,20.1959512 61.7618514,20.1959512 L65.7967926,20.1959512 C66.1877338,20.1959512 66.7364397,20.4192453 67.0162044,20.6921865 L69.1207926,22.7448923 C69.4106749,23.0275982 69.6478514,23.5903041 69.6478514,23.9951276 L69.6478514,34.6372453 L71.1259691,34.6372453 C71.7513808,34.6372453 72.1740867,35.2754806 71.9299691,35.8512453 L67.0518514,47.3603041 C66.3664397,48.9773629 64.7790279,50.0263041 63.0226749,50.0226571 L12.8922044,49.9174806 C11.4180867,49.9144218 10.0450279,49.1675982 9.24126318,47.9318335 L0.142674947,33.9420688 C-0.235207406,33.3611276 0.18173377,32.5927747 0.874792594,32.5927747 L6.27102789,32.5927747 C7.70185142,32.59301 9.04185142,33.2938335 9.85785142,34.4691276 Z M62.5676161,24.7603041 L59.7856161,24.7603041 L59.7856161,26.6328923 L62.5676161,26.6328923 L62.5676161,24.7603041 Z M62.5676161,30.1719512 L59.7856161,30.1719512 L59.7856161,32.0446571 L62.5676161,32.0446571 L62.5676161,30.1719512 Z M67.7305573,24.7603041 L64.9484397,24.7603041 L64.9484397,26.6328923 L67.7305573,26.6328923 L67.7305573,24.7603041 Z M67.7305573,30.1719512 L64.9484397,30.1719512 L64.9484397,32.0446571 L67.7305573,32.0446571 L67.7305573,30.1719512 Z M45.054322,32.5646571 L37.2787926,37.3791276 C37.6270279,37.5592453 38.016322,37.6707747 38.4353808,37.6707747 L51.3039691,37.6707747 C51.8030279,37.6707747 52.2651455,37.5213629 52.6572632,37.2721865 L45.054322,32.5646571 Z M28.2536161,22.2511276 L41.1220867,22.2511276 C41.6212632,22.2511276 42.0833808,22.1018335 42.4754985,21.8525394 L34.8725573,17.14501 L27.0970279,21.9593629 C27.4452632,22.1397159 27.8345573,22.2511276 28.2536161,22.2511276 Z M30.8047926,37.6708923 C31.3038514,37.6708923 31.7660867,37.5214806 32.1582044,37.2723041 L24.5552632,32.5646571 L16.7797338,37.3791276 C17.1278514,37.5592453 17.5171455,37.6707747 17.936322,37.6707747 L30.8047926,37.6707747 L30.8047926,37.6708923 Z M36.2036161,36.3111276 L43.654322,31.6978335 L36.1609102,27.0580688 C36.0007926,27.3903041 35.9032632,27.7583041 35.9032632,28.1517159 L35.9032632,35.1386571 C35.9031455,35.5643041 36.0182044,35.9592453 36.2036161,36.3111276 Z M23.1552632,31.6978335 L15.6618514,27.0580688 C15.5016161,27.3903041 15.4042044,27.7583041 15.4042044,28.1517159 L15.4042044,35.1386571 C15.4042044,35.5640688 15.5191455,35.9591276 15.7046749,36.3111276 L23.1552632,31.6978335 Z M33.1294985,36.1400688 C33.2622044,35.8327747 33.3370279,35.4947747 33.3370279,35.1386571 L33.3370279,28.1518335 C33.3370279,27.8281865 33.2707926,27.5213629 33.1600867,27.2368923 L25.9552632,31.6978335 L33.1294985,36.1400688 Z M45.054322,30.8311276 L52.7424397,26.0708923 C52.3334985,25.7875982 51.8389102,25.6197159 51.3039691,25.6197159 L38.4353808,25.6197159 C37.9794985,25.6197159 37.5577338,25.7497159 37.1882044,25.9605394 L45.054322,30.8311276 Z M43.4469102,20.7204218 C43.5794985,20.4131276 43.654322,20.07501 43.654322,19.7191276 L43.654322,12.7323041 C43.654322,12.4086571 43.5880867,12.1018335 43.4773808,11.8173629 L36.2726749,16.2783041 L43.4469102,20.7204218 Z M53.6286749,36.1400688 C53.7611455,35.8327747 53.8362044,35.4947747 53.8362044,35.1386571 L53.8362044,28.1518335 C53.8362044,27.8281865 53.7698514,27.5213629 53.6591455,27.2368923 L46.4544397,31.6978335 L53.6286749,36.1400688 Z M34.8725573,15.4113629 L42.5606749,10.6512453 C42.1517338,10.3679512 41.6571455,10.1999512 41.1222044,10.1999512 L28.2537338,10.1999512 C27.7977338,10.1999512 27.3760867,10.3299512 27.0065573,10.5408923 L34.8725573,15.4113629 Z M30.8047926,25.6195982 L17.936322,25.6195982 C17.480322,25.6195982 17.0585573,25.7495982 16.6891455,25.9605394 L24.5552632,30.83101 L32.2432632,26.0707747 C31.834322,25.7877159 31.3397338,25.6195982 30.8047926,25.6195982 Z M33.4724397,16.2783041 L26.0218514,20.8915982 C25.8364397,20.5397159 25.7213808,20.1447747 25.7213808,19.7191276 L25.7213808,12.7323041 C25.7213808,12.3387747 25.8189102,11.9708923 25.9790279,11.6385394 L33.4724397,16.2783041 Z M64.3701557,50 C62.9961722,50 61.8825573,49.015456 61.8825573,47.8007209 C61.8825573,46.5859857 62.9961722,45.6014417 64.3701557,45.6014417 C67.0559327,45.6014417 69.6051683,44.5672918 71.3644531,42.7636386 C71.8370968,42.2790641 72.5247796,42.0004887 73.2483943,42.0004887 C73.972009,42.0004887 74.6596918,42.2790641 75.1323355,42.7636386 C76.8910675,44.5670475 79.440303,45.6011974 82.1263565,45.6011974 C84.8124099,45.6011974 87.3616455,44.5668031 89.1206539,42.7631499 C89.5932976,42.2785754 90.2809804,42 91.0045951,42 C91.7282098,42 92.4158926,42.2785754 92.8885363,42.7631499 C94.6475447,44.5665587 97.1965039,45.600953 99.8825573,45.600953 C102.568611,45.600953 105.117846,44.5665587 106.876578,42.7631499 C107.349222,42.2785754 108.036905,42 108.76052,42 C109.484134,42 110.172093,42.2788197 110.644461,42.7631499 C112.403746,44.5668031 114.952705,45.6011974 117.638758,45.6011974 C120.324812,45.6011974 122.874047,44.5668031 124.632779,42.7633942 C125.105423,42.2788197 125.793106,42.0002444 126.51672,42.0002444 C127.240335,42.0002444 127.928294,42.2790641 128.400661,42.7633942 C130.159946,44.5670475 132.709182,45.6014417 135.394959,45.6014417 C136.768942,45.6014417 137.882557,46.5859857 137.882557,47.8007209 C137.882557,49.015456 136.768942,50 135.394959,50 C132.501329,50 129.712731,49.2192559 127.371349,47.8007209 C127.079747,47.6240455 126.793673,47.4390616 126.51672,47.2428371 C126.239491,47.4390616 125.953694,47.6240455 125.662092,47.8007209 C123.320986,49.2192559 120.532388,50 117.638758,50 C114.745128,50 111.956531,49.2192559 109.615148,47.8007209 C109.323546,47.6240455 109.037472,47.4390616 108.76052,47.2428371 C108.48329,47.4390616 108.197493,47.6240455 107.905891,47.8007209 C105.564785,49.2192559 102.775911,50 99.8825573,50 C96.989204,50 94.2003298,49.2192559 91.8592233,47.8007209 C91.5676215,47.6240455 91.2815477,47.4390616 91.0045951,47.2428371 C90.7273661,47.4390616 90.4415687,47.6240455 90.1499669,47.8007209 C87.808584,49.2192559 85.0197098,50 82.1263565,50 C79.2330032,50 76.444129,49.2192559 74.1030225,47.8007209 C73.8114207,47.6240455 73.5253469,47.4390616 73.2483943,47.2428371 C72.9711653,47.4390616 72.6853678,47.6240455 72.393766,47.8007209 C70.0523832,49.2192559 67.2637854,50 64.3701557,50 Z" id="Ship_2"></path>
                    </g>
                </g>
            </g>
        </g>
    </g>
</svg>