<?xml version="1.0" encoding="UTF-8"?>
<svg width="138px" height="50px" viewBox="0 0 138 50" version="1.1" xmlns="http://www.w3.org/2000/svg" xmlns:xlink="http://www.w3.org/1999/xlink">
    <!-- Generator: Sketch 47.1 (45422) - http://www.bohemiancoding.com/sketch -->
    <title>Ship_1</title>
    <desc>Created with Sketch.</desc>
    <defs></defs>
    <g id="Index" stroke="none" stroke-width="1" fill="none" fill-rule="evenodd">
        <g transform="translate(-1130.000000, -2234.000000)" id="#3" fill-rule="nonzero" fill="#0690AF">
            <g transform="translate(389.000000, 2210.000000)">
                <g id="Title" transform="translate(264.000000, 0.000000)">
                    <g id="Ships" transform="translate(0.000000, 24.000000)">
                        <path d="M614.833333,29.2672454 L606.471875,46.6930556 C605.426042,48.7203704 603.335532,49.9940972 601.054282,49.9940972 L551.75162,49.9940972 C550.843056,49.9940972 550.253704,49.0361111 550.663426,48.225 L550.684144,48.183912 C551.352894,46.8599537 550.956134,45.2460648 549.749653,44.3834491 L549.681481,44.3346065 C546.880903,42.331713 545.219213,39.1002315 545.219213,35.6571759 L545.219213,31.7056713 L589.111343,31.7056713 L589.111343,31.68125 C589.111343,30.3479167 590.19213,29.2672454 591.525231,29.2672454 L614.833333,29.2672454 L614.833333,29.2672454 Z M586.672801,14.6365741 L578.13831,14.6365741 C577.464931,14.6365741 576.919097,15.1824074 576.919097,15.855787 L576.919097,29.2672454 C576.919097,29.940625 577.464931,30.4865741 578.13831,30.4865741 L586.672801,30.4865741 C587.346065,30.4865741 587.892014,29.940625 587.892014,29.2672454 L587.892014,15.855787 C587.89213,15.1824074 587.346181,14.6365741 586.672801,14.6365741 Z M601.303472,19.5134259 L591.549769,19.5134259 C590.876505,19.5134259 590.330556,20.0592593 590.330556,20.7326389 L590.330556,25.609375 C590.330556,26.2827546 590.876505,26.8287037 591.549769,26.8287037 L601.303472,26.8287037 C601.976852,26.8287037 602.522685,26.2827546 602.522685,25.609375 L602.522685,20.7326389 C602.522685,20.0592593 601.976852,19.5134259 601.303472,19.5134259 Z M563.507523,30.4863426 L573.261227,30.4863426 C573.934606,30.4863426 574.48044,29.9403935 574.48044,29.2672454 L574.48044,19.5134259 C574.48044,18.8400463 573.934606,18.294213 573.261227,18.294213 L563.507523,18.294213 C562.834144,18.294213 562.28831,18.8400463 562.28831,19.5134259 L562.28831,29.2672454 C562.288426,29.9405093 562.834259,30.4863426 563.507523,30.4863426 Z M562.883681,12.1980324 L559.85,14.6365741 L559.85,30.4863426 L547.657639,30.4863426 L547.657639,14.6365741 L544,14.6365741 L544,12.1980324 L552.534491,12.1980324 L552.534491,8.66261574 L549.382639,8.66261574 L549.382639,7.23946759 L552.534491,7.23946759 L552.534491,0.00590277778 L553.753704,0.00590277778 L553.753704,7.23946759 L556.905671,7.23946759 L556.905671,8.66261574 L553.753704,8.66261574 L553.753704,12.1980324 L562.883681,12.1980324 Z M557.647338,22.2293981 L553.679745,22.2293981 L553.679745,25.8702546 L557.647338,25.8702546 L557.647338,22.2293981 Z M557.647338,16.3947917 L557.647338,20.0357639 L553.679745,20.0357639 L553.679745,16.3947917 L557.647338,16.3947917 Z M479.487598,50 C478.113615,50 477,49.015456 477,47.8007209 C477,46.5859857 478.113615,45.6014417 479.487598,45.6014417 C482.173375,45.6014417 484.722611,44.5672918 486.481896,42.7636386 C486.95454,42.2790641 487.642222,42.0004887 488.365837,42.0004887 C489.089452,42.0004887 489.777134,42.2790641 490.249778,42.7636386 C492.00851,44.5670475 494.557746,45.6011974 497.243799,45.6011974 C499.929853,45.6011974 502.479088,44.5668031 504.238097,42.7631499 C504.71074,42.2785754 505.398423,42 506.122038,42 C506.845653,42 507.533335,42.2785754 508.005979,42.7631499 C509.764987,44.5665587 512.313947,45.600953 515,45.600953 C517.686053,45.600953 520.235289,44.5665587 521.994021,42.7631499 C522.466665,42.2785754 523.154347,42 523.877962,42 C524.601577,42 525.289536,42.2788197 525.761903,42.7631499 C527.521188,44.5668031 530.070147,45.6011974 532.756201,45.6011974 C535.442254,45.6011974 537.99149,44.5668031 539.750222,42.7633942 C540.222866,42.2788197 540.910548,42.0002444 541.634163,42.0002444 C542.357778,42.0002444 543.045737,42.2790641 543.518104,42.7633942 C545.277389,44.5670475 547.826625,45.6014417 550.512402,45.6014417 C551.886385,45.6014417 553,46.5859857 553,47.8007209 C553,49.015456 551.886385,50 550.512402,50 C547.618772,50 544.830174,49.2192559 542.488791,47.8007209 C542.197189,47.6240455 541.911116,47.4390616 541.634163,47.2428371 C541.356934,47.4390616 541.071137,47.6240455 540.779535,47.8007209 C538.438428,49.2192559 535.649831,50 532.756201,50 C529.862571,50 527.073973,49.2192559 524.73259,47.8007209 C524.440989,47.6240455 524.154915,47.4390616 523.877962,47.2428371 C523.600733,47.4390616 523.314936,47.6240455 523.023334,47.8007209 C520.682227,49.2192559 517.893353,50 515,50 C512.106647,50 509.317773,49.2192559 506.976666,47.8007209 C506.685064,47.6240455 506.39899,47.4390616 506.122038,47.2428371 C505.844809,47.4390616 505.559011,47.6240455 505.26741,47.8007209 C502.926027,49.2192559 500.137152,50 497.243799,50 C494.350446,50 491.561572,49.2192559 489.220465,47.8007209 C488.928863,47.6240455 488.64279,47.4390616 488.365837,47.2428371 C488.088608,47.4390616 487.802811,47.6240455 487.511209,47.8007209 C485.169826,49.2192559 482.381228,50 479.487598,50 Z" id="Ship_1"></path>
                    </g>
                </g>
            </g>
        </g>
    </g>
</svg>