<svg xmlns="http://www.w3.org/2000/svg" xmlns:xlink="http://www.w3.org/1999/xlink" viewBox="0 0 190 64">
  <defs>
    <path id="a" d="M0 37.577V.182h73.477v37.395z"/>
    <path id="c" d="M112.059.153v18.616H.191V.153h111.868z"/>
  </defs>
  <g fill="none" fill-rule="evenodd">
    <g transform="translate(0 .023)">
      <mask id="b" fill="#fff">
        <use xlink:href="#a"/>
      </mask>
      <path fill="#FFF" d="M4.651 37.56c-2.72 0-5.03-1.999-4.6-4.681.26-1.62 3.124-5.29 4.552-7.528.99-1.552 2.366-2.304 4.243-2.288 5.192.045 10.385.016 15.577.038.483.002.615-.126.607-.609-.028-1.845.015-3.691-.027-5.536-.013-.573.163-.679.696-.673 2.707.028 5.414-.014 8.12.03.734.013.976-.128.97-.928-.044-4.823-.014-9.647-.035-14.47-.002-.555.109-.735.709-.733C43.41.205 51.36.203 59.309.185c.564-.002.73.123.727.713-.022 7.137-.004 14.274-.03 21.41-.003.647.146.811.797.8 2.435-.045 4.872-.036 7.308-.005.532.007.658-.15.637-.656-.041-.983.016-1.97-.024-2.952-.021-.52.074-.733.665-.705 1.13.056 2.264.047 3.395.003.54-.02.696.11.693.677-.027 4.355-.015 8.71-.015 13.067 0 1.451-.028 2.904.014 4.355.016.552-.13.686-.684.685-8.785-.02-56.82-.01-68.14-.016" mask="url(#b)"/>
    </g>
    <g transform="translate(77.538 18.69)">
      <mask id="d" fill="#fff">
        <use xlink:href="#c"/>
      </mask>
      <path fill="#FFF" d="M1.02 18.766c-.682 0-.834-.181-.83-.84.032-4.382.014-8.763.02-13.146 0-1.352.049-2.705.024-4.057C.224.234.41.198.826.163c.718-.06 1.177.166 1.557.799.57.946 1.264 1.816 1.862 2.747.23.355.508.504.897.515.197.006.394.003.591.003 21.415 0 89.203.03 101.681.05 2.72.004 4.987 1.992 4.602 4.682-.251 1.753-3.204 5.474-4.723 7.77-.879 1.328-2.135 2.04-3.778 2.04-17.033-.008-85.364-.025-102.496-.003" mask="url(#d)"/>
    </g>
    <path fill="#FFF" d="M25.339 55.475v-.014c-.59 0-1.178.005-1.766-.002-.267-.004-.476.002-.467.373.02.833.01 1.667.004 2.501-.002.223.032.379.31.375 1.275-.02 2.555.04 3.822-.067 1.001-.084 1.501-.766 1.47-1.691-.027-.86-.583-1.391-1.608-1.467-.586-.044-1.177-.008-1.765-.008m-8.88-2.007c0-3.124.01-6.249-.01-9.372-.002-.467.101-.623.6-.621 5.412.018 10.824.017 16.235.001.472-.001.63.108.616.603a59.933 59.933 0 0 0 .002 3.762c.018.543-.115.699-.679.693-3.124-.03-6.248.005-9.372-.03-.629-.008-.773.171-.755.774.044 1.452.012 1.434 1.46 1.458 2.036.033 4.082-.16 6.103.272 2.812.6 4.457 2.251 4.82 4.866.397 2.86-.845 5.271-3.37 6.537-1.46.733-3.031 1-4.64 1.013-3.468.028-6.937-.006-10.405.023-.564.004-.617-.21-.614-.681.019-3.1.01-6.2.01-9.298"/>
    <path fill="#0083A0" d="M88.41 55.139c.754-1.323 3.133-5.48 3.85-6.677.295-.491.274-.667.872-.667 1.412 0 4.346-.009 5.062-.025.368-.008.518.084.518.488-.002 4.897.009 9.795.031 14.692.002.401-.137.494-.511.49a166.42 166.42 0 0 0-4.725.004c-.455.008-.584-.12-.579-.577.019-1.796.052-5.859-.087-6.137-.221.399-.397.695-.564.98-.613 1.048-1.65 2.912-2.427 4.153-.256.41-2.481.38-2.735.086-1.123-1.303-2.272-3.383-2.991-4.615-.12-.205-.229-.376-.496-.877-.018.385.004.588.004.792-.002 1.87-.008 3.74.004 5.611.002.367-.025.591-.499.583a167.768 167.768 0 0 0-4.873-.002c-.412.006-.484-.166-.483-.526.008-4.873.01-9.746-.004-14.619-.001-.44.16-.53.56-.527 1.944.017 3.888.026 5.832-.006.441-.007.592.207.754.532 1.02 2.045 2.052 4.085 3.082 6.125.107.211.232.413.404.719m51.031 8.298c-1.85 0-3.675.084-5.513.038-1.539.136-2.445-.364-3.073-1.753-.473-1.045-1.169-1.99-1.753-2.983-.294-.5-.593-.465-1.153-.44-.462.022-.388.528-.394.803a84.895 84.895 0 0 0-.002 3.762c.01.448-.11.59-.573.583a202.33 202.33 0 0 0-5.387-.002c-.425.005-.54-.134-.539-.547.012-4.87.013-9.74-.002-14.61-.001-.449.177-.522.567-.518 1.795.015 3.59.026 5.386-.005.5-.009.551.2.545.609a124.7 124.7 0 0 0 .005 4.057c.005.268-.054.77.256.774.463.005 1.125.127 1.498-.482.921-1.51 1.792-2.835 2.706-4.349.277-.46.58-.62 1.113-.61 1.988.033 3.976.013 5.968.013.047.29-.399.796-.544 1.052-1.328 1.98-2.348 3.536-3.74 5.47-.512.71-.534 1.19-.03 1.915 1.485 2.139 2.882 4.339 4.31 6.518.13.198.32.37.35.705"/>
    <path fill="#FFF" d="M73.318 55.617c0 2.386-.022 4.773.015 7.158.009.573-.163.685-.697.674a123.931 123.931 0 0 0-5.092 0c-.555.011-.744-.108-.737-.71.034-3.076.031-6.151.031-9.226 0-1-2.336-.985-2.766-.521-.377.408-.288 1.32-.313 2.03-.057 1.601-.211 3.19-.644 4.736-.734 2.617-2.34 3.827-5.064 3.816-.81-.003-1.62-.103-2.431-.111-.429-.005-.46-.2-.44-.548.092-1.497.169-2.996.234-4.495.014-.312.048-.465.44-.473 1.46-.03 1.887-.44 2.09-1.903.232-1.686.192-3.387.283-5.08.048-.884.07-1.77.075-2.656.003-.399.128-.542.554-.54 4.65.015 9.3.015 13.949 0 .432-.002.524.14.521.542-.017 2.436-.008 4.871-.008 7.307"/>
    <path fill="#0083A0" d="M110.794 57.086c-.488.002-.979-.028-1.45.146-.562.208-.887.578-.88 1.205.007.624.339 1 .895 1.201 1.005.364 2.226-.206 2.597-1.204.347-.933.08-1.348-.868-1.348h-.294m1.203-3.106c-.232-.86-.824-1.175-1.52-1.322-1.693-.358-3.331-.114-4.896.58-.434.194-.624.161-.833-.282a65.27 65.27 0 0 0-1.548-3.016c-.183-.342-.198-.54.201-.733 3.615-1.754 7.347-2.177 11.152-.792 2.67.972 3.841 3.147 3.934 5.867.099 2.876.02 5.758.043 8.637.004.437-.15.53-.552.526-1.624-.02-3.248-.027-4.872.003-.488.01-.664-.133-.62-.619.036-.388.008-.782.008-1.293-1.843 2.338-4.221 2.347-6.676 1.735-2.709-.675-4.149-3.223-3.418-5.865.536-1.94 2.063-2.71 3.847-3.118a13.11 13.11 0 0 1 3.003-.309c.885.005 1.77.001 2.747.001"/>
    <path fill="#FFF" d="M48.033 53.8c-.427-1.265-1.262-1.786-2.694-1.735-1.201.043-1.972.626-2.26 1.735h4.954zm-4.872 3.138c.683 1.54 2.14 2.18 4.02 1.866a4.317 4.317 0 0 0 2.004-.876c.3-.238.475-.197.725.066.865.91 1.734 1.816 2.64 2.682.36.344.342.538-.019.849-1.13.973-2.435 1.548-3.89 1.817-2.14.395-4.259.335-6.341-.326-3.62-1.151-5.827-4.096-5.716-7.603.114-3.65 2.516-6.551 6.217-7.458 2.258-.552 4.492-.446 6.66.43 3.298 1.332 5.142 4.624 4.627 8.142-.076.517-.385.408-.681.408-3.15.004-6.299.003-9.448.003h-.798z"/>
    <path fill="#0083A0" d="M148.737 63.579c-2.447-.046-4.722-.62-6.622-2.26-3.661-3.16-3.474-9.01.485-11.793 3.24-2.278 6.804-2.506 10.446-.999 1.48.613 2.55 1.722 3.254 3.178.204.422.157.624-.297.826a105.254 105.254 0 0 0-3.93 1.856c-.402.199-.601.183-.857-.242-.71-1.18-1.81-1.675-2.976-1.437-1.206.247-2.011 1.172-2.111 2.424-.133 1.671.467 2.822 1.698 3.256 1.215.429 2.542.055 3.223-1.094.4-.676.727-.627 1.304-.333a55.962 55.962 0 0 0 3.598 1.696c.555.235.538.48.307.934-1.172 2.308-3.163 3.41-5.611 3.838-.629.11-1.265.196-1.911.15"/>
  </g>
</svg>
