<?xml version="1.0" encoding="UTF-8"?>
<svg width="16px" height="16px" viewBox="0 0 16 16" version="1.1" xmlns="http://www.w3.org/2000/svg" xmlns:xlink="http://www.w3.org/1999/xlink">
    <!-- Generator: Sketch 47.1 (45422) - http://www.bohemiancoding.com/sketch -->
    <title>Pen</title>
    <desc>Created with Sketch.</desc>
    <defs></defs>
    <g id="Index" stroke="none" stroke-width="1" fill="none" fill-rule="evenodd" opacity="0.400000006">
        <g transform="translate(-405.000000, -3781.000000)" id="#4" fill="#000000">
            <g transform="translate(0.000000, 3138.000000)">
                <g id="Top-News" transform="translate(390.000000, 284.000000)">
                    <g id="Item-1" transform="translate(0.000000, 82.000000)">
                        <g id="Content" transform="translate(15.000000, 275.000000)">
                            <g id="Date">
                                <path d="M11.9383359,5.64252571 L8.97756714,3.28723306 L9.44855874,2.70101915 C10.0963911,1.89562735 11.2782473,1.76516432 12.0871622,2.40878196 L12.11691,2.43313506 C12.9275933,3.07675269 13.0589107,4.25092001 12.4110784,5.0545723 L11.9383359,5.64252571 Z M9.06159625,10.5844672 C9.04585567,10.4418276 9.08437543,10.2922126 9.18239071,10.172204 L11.4025471,7.41508521 L10.8597686,6.98368744 L3.99449704,15.5072724 L1.03372829,13.1519797 L8.60459433,3.74994369 L11.5636122,6.10697585 L11.5618788,6.10871536 L12.1046572,6.54011313 L12.4215523,6.14698451 C12.6141511,5.90867204 12.9660991,5.85648682 13.2112248,6.04087458 C13.4651051,6.23222036 13.5088775,6.59229834 13.311026,6.83756884 L10.06311,10.8732254 C9.86876029,11.1150169 9.51332797,11.153286 9.26993562,10.9602007 C9.14914115,10.8627883 9.07733682,10.7270894 9.06159625,10.5844672 Z M3.50249467,15.9421492 C3.36067192,16.0186701 3.23460725,16.0708553 3.23635815,16.0708553 L0.38939778,17.3580906 C0.184542698,17.4520239 -0.0395722637,17.2728721 0.00595108787,17.0536768 L0.645028908,14.0130184 C0.645028908,14.0130184 0.667790583,13.8773368 0.713313935,13.7225207 L3.50249467,15.9421492 Z M15.5942077,16.4866114 C15.7885574,16.4866114 15.9426189,16.6014189 15.9881773,16.7771265 C16.0161917,16.8849585 15.99343,17.0049845 15.9303976,17.1023969 C15.8726005,17.1911292 15.7850556,17.2485329 15.6852719,17.2641885 L15.683521,17.2641885 L15.6817526,17.2641885 L9.88102708,17.9982431 L9.87927618,17.9982431 L9.87750778,17.9982431 C9.86700239,18 9.85476361,18 9.84425822,18 C9.74795882,18 9.65689461,17.9617308 9.58510779,17.8886889 C9.44503594,17.7477889 9.41703907,17.4746688 9.53785105,17.3111552 C9.5816235,17.2520119 9.62539595,17.1911292 9.66916841,17.1320033 C9.80398756,16.9441192 9.64640673,16.6866721 9.41703907,16.7214623 L2.69707452,17.7251579 C2.67431284,17.7286195 2.65330207,17.7303764 2.63229129,17.7303764 C2.5237356,17.7303764 2.42393441,17.6868887 2.35214759,17.6086109 C2.29086615,17.5425096 2.25234639,17.4537948 2.2453428,17.3598614 C2.22783382,17.149381 2.36790567,16.9736908 2.57626255,16.9423797 L4.41470559,16.6675201 L5.08880137,16.5666461 L10.7266934,15.7247247 C10.749455,15.7212457 10.7704658,15.7194888 10.7914766,15.7194888 C11.0996347,15.7194888 11.3219987,16.0760877 11.1556634,16.3439718 C11.0926311,16.4448806 11.0295987,16.5457546 10.964833,16.6449239 C10.845772,16.8327733 10.999851,17.0728427 11.2204642,17.0450106 L15.5224034,16.4918299 C15.5469334,16.4883683 15.5697126,16.4866114 15.5942077,16.4866114 Z" id="Pen"></path>
                            </g>
                        </g>
                    </g>
                </g>
            </g>
        </g>
    </g>
</svg>