<?xml version="1.0" encoding="UTF-8"?>
<svg width="60px" height="60px" viewBox="0 0 60 60" version="1.1" xmlns="http://www.w3.org/2000/svg" xmlns:xlink="http://www.w3.org/1999/xlink">
    <!-- Generator: Sketch 47.1 (45422) - http://www.bohemiancoding.com/sketch -->
    <title>Refresh</title>
    <desc>Created with Sketch.</desc>
    <defs>
        <filter x="-14.8%" y="-55.2%" width="129.6%" height="237.9%" filterUnits="objectBoundingBox" id="filter-1">
            <feOffset dx="0" dy="8" in="SourceAlpha" result="shadowOffsetOuter1"></feOffset>
            <feGaussianBlur stdDeviation="12" in="shadowOffsetOuter1" result="shadowBlurOuter1"></feGaussianBlur>
            <feColorMatrix values="0 0 0 0 0   0 0 0 0 0   0 0 0 0 0  0 0 0 0.1 0" type="matrix" in="shadowBlurOuter1" result="shadowMatrixOuter1"></feColorMatrix>
            <feMerge>
                <feMergeNode in="shadowMatrixOuter1"></feMergeNode>
                <feMergeNode in="SourceGraphic"></feMergeNode>
            </feMerge>
        </filter>
    </defs>
    <g id="Index" stroke="none" stroke-width="1" fill="none" fill-rule="evenodd">
        <g transform="translate(-842.000000, -4095.000000)" id="#4" fill-rule="nonzero" fill="#FFFFFF">
            <g transform="translate(0.000000, 3138.000000)">
                <g id="Other-News" transform="translate(825.000000, 284.000000)">
                    <g id="Button-More" filter="url(#filter-1)" transform="translate(0.000000, 667.000000)">
                        <g id="Text" transform="translate(40.000000, 15.000000)">
                            <path d="M1.20774696,11.8513926 C0.802579032,11.8513926 0.424604822,11.6612319 0.200994948,11.345849 C-0.0226149268,11.030581 -0.0624211145,10.6315539 0.0955116268,10.2830696 C1.23266428,7.76891407 3.8989098,6 7.00000869,6 C9.04522846,6 10.900123,6.76943538 12.2538102,8.01412885 L12.7615391,7.30138538 C12.8894172,7.12185621 13.1281928,7.04206227 13.3492187,7.10493196 C13.5698754,7.16780165 13.7203944,7.35853704 13.7191024,7.57421341 L13.6999992,11.3654455 C13.6990148,11.5306652 13.6087587,11.684219 13.4601776,11.7736962 C13.3113505,11.8630298 13.124286,11.8760462 12.9628156,11.8083205 L9.27917441,10.2603698 C9.068177,10.1718121 8.94457479,9.96400878 8.97564454,9.74982657 C9.00665276,9.53552942 9.1846424,9.3659709 9.41345108,9.33284075 L10.0832963,9.2359789 C9.22869376,8.61857439 8.16272466,8.2463272 7.00000869,8.2463272 C4.89040379,8.2463272 3.08082189,9.45332184 2.31124585,11.165975 C2.12485814,11.5811506 1.68960486,11.8513926 1.20774696,11.8513926 Z M13.7990532,14.6541798 C14.0226323,14.9694764 14.0624385,15.3684748 13.9044135,15.7169591 C12.7672916,18.2311147 10.1011383,20 6.99997793,20 C4.95475816,20 3.09983288,19.2305646 1.7461764,17.9858137 L1.23844756,18.6985571 C1.11060017,18.8781151 0.871793809,18.9579377 0.650767953,18.895068 C0.43008048,18.8321983 0.279592173,18.641463 0.280884182,18.4257866 L0.300018223,14.6345545 C0.300971849,14.4693635 0.391258681,14.3158098 0.539808974,14.2263325 C0.688666889,14.1369702 0.875700599,14.1240112 1.03720175,14.1917082 L4.72084297,15.7396589 C4.93184037,15.8282167 5.05541182,16.0360487 5.02437284,16.2502022 C4.9933031,16.464528 4.81531345,16.6341153 4.58653554,16.6672454 L3.91665954,16.7640498 C4.77129285,17.3814543 5.83726195,17.7537015 7.00000869,17.7537015 C9.10958282,17.7537015 10.9191647,16.5467069 11.6887715,14.8340537 C11.8751592,14.4188781 12.3104125,14.1486362 12.7922704,14.1486362 C13.1974076,14.1486362 13.5754126,14.3387681 13.7990532,14.6541798 Z" id="Refresh"></path>
                        </g>
                    </g>
                </g>
            </g>
        </g>
    </g>
</svg>