<?xml version="1.0" encoding="UTF-8"?>
<svg width="53px" height="48px" viewBox="0 0 53 48" version="1.1" xmlns="http://www.w3.org/2000/svg" xmlns:xlink="http://www.w3.org/1999/xlink">
    <!-- Generator: Sketch 47.1 (45422) - http://www.bohemiancoding.com/sketch -->
    <title>VK</title>
    <desc>Created with Sketch.</desc>
    <defs>
        <filter x="-29.0%" y="-65.8%" width="158.0%" height="252.6%" filterUnits="objectBoundingBox" id="filter-1">
            <feOffset dx="0" dy="4" in="SourceAlpha" result="shadowOffsetOuter1"></feOffset>
            <feGaussianBlur stdDeviation="9" in="shadowOffsetOuter1" result="shadowBlurOuter1"></feGaussianBlur>
            <feColorMatrix values="0 0 0 0 0   0 0 0 0 0   0 0 0 0 0  0 0 0 0.06 0" type="matrix" in="shadowBlurOuter1" result="shadowMatrixOuter1"></feColorMatrix>
            <feMerge>
                <feMergeNode in="shadowMatrixOuter1"></feMergeNode>
                <feMergeNode in="SourceGraphic"></feMergeNode>
            </feMerge>
        </filter>
    </defs>
    <g id="News-Page" stroke="none" stroke-width="1" fill="none" fill-rule="evenodd">
        <g id="News-Page-(Desktop)" transform="translate(-1194.000000, -427.000000)" fill-rule="nonzero" fill="#FFFFFF">
            <g id="#2" transform="translate(381.000000, 428.000000)">
                <g id="News-Header" transform="translate(9.000000, 0.000000)">
                    <g id="Share" transform="translate(800.000000, 0.000000)">
                        <g id="VK" filter="url(#filter-1)">
                            <g id="Social" transform="translate(20.000000, 8.000000)">
                                <path d="M17.2128498,12.6301467 C17.8762748,13.3168864 18.5764983,13.9630083 19.1715174,14.7190002 C19.4343641,15.0549502 19.6832141,15.4016294 19.8735808,15.7915041 C20.1433272,16.345731 19.8990113,16.9556244 19.43029,16.9887177 L16.5166348,16.9873243 C15.7651562,17.0534414 15.1656687,16.7326796 14.6615945,16.1879278 C14.2581906,15.7522798 13.8846198,15.2886242 13.4967238,14.8382757 C13.3377016,14.6542069 13.1712539,14.4810067 12.9724104,14.3441046 C12.5746577,14.0703702 12.2294086,14.1541835 12.002112,14.5940118 C11.7706098,15.0413645 11.7181062,15.53672 11.69537,16.0352803 C11.6641569,16.7627074 11.4567709,16.9539523 10.767587,16.9872547 C9.29472572,17.0608961 7.8969072,16.8246443 6.598379,16.0368827 C5.45355039,15.3424097 4.5657858,14.3620099 3.79308234,13.2520931 C2.28861379,11.0908522 1.13649118,8.71600226 0.101006776,6.27461727 C-0.132072497,5.72457063 0.0383835596,5.4293081 0.610797867,5.41885756 C1.56131709,5.39928022 2.51170489,5.40067362 3.46334121,5.41746415 C3.84966009,5.4234558 4.10540988,5.65838389 4.25457536,6.04533247 C4.76883485,7.38599714 5.39808974,8.66152013 6.18794395,9.84382431 C6.39828698,10.1585945 6.61276986,10.4733647 6.91819767,10.6949161 C7.25608705,10.9402251 7.51334822,10.8589199 7.67230473,10.4598487 C7.77317214,10.2068063 7.81733037,9.9342563 7.84006661,9.66323902 C7.91537218,8.73084203 7.92529464,7.80004745 7.79321419,6.87092496 C7.712126,6.29105945 7.40406972,5.91567613 6.85833435,5.80594548 C6.57984831,5.75000027 6.62131237,5.64013028 6.75615271,5.47159794 C6.99034908,5.18093365 7.21061458,5 7.64969992,5 L10.9425771,5 C11.4609764,5.10847658 11.5761033,5.35538796 11.6470719,5.90843042 L11.6498975,9.78648569 C11.6442463,10.0005824 11.7507649,10.6359054 12.1144789,10.7776147 C12.4055816,10.8784972 12.5974597,10.6315859 12.7721213,10.4358821 C13.5605298,9.54870112 14.1232188,8.50023349 14.625913,7.41456194 C14.8490041,6.93718137 15.0408165,6.44140786 15.2267148,5.94605236 C15.3644464,5.57847211 15.5805721,5.39760813 15.9710965,5.40562021 L19.1403044,5.40861603 C19.2342721,5.40861603 19.3293568,5.41007911 19.4203675,5.42659096 C19.9544062,5.52308426 20.1007461,5.76665146 19.9358098,6.31955458 C19.6759202,7.1870189 19.1702689,7.90991744 18.6758543,8.63616015 C18.1473354,9.4115204 17.5820837,10.1603363 17.0579674,10.9402947 C16.5764324,11.6525337 16.6146766,12.0115446 17.2128498,12.6301467 L17.2128498,12.6301467 Z" id="VK"></path>
                            </g>
                        </g>
                    </g>
                </g>
            </g>
        </g>
    </g>
</svg>