<?xml version="1.0" encoding="UTF-8"?>
<svg width="29px" height="31px" viewBox="0 0 29 31" version="1.1" xmlns="http://www.w3.org/2000/svg" xmlns:xlink="http://www.w3.org/1999/xlink">
    <!-- Generator: Sketch 47.1 (45422) - http://www.bohemiancoding.com/sketch -->
    <title>World</title>
    <desc>Created with Sketch.</desc>
    <defs></defs>
    <g id="Index" stroke="none" stroke-width="1" fill="none" fill-rule="evenodd">
        <g transform="translate(-1122.000000, -5653.000000)" id="#5" fill-rule="nonzero" fill="#0690AF">
            <g transform="translate(0.000000, 5153.000000)">
                <g id="Map" transform="translate(0.000000, 434.000000)">
                    <g id="Contact-Card" transform="translate(1072.000000, 0.000000)">
                        <g id="City" transform="translate(50.000000, 61.000000)">
                            <path d="M26.6614075,18.9650271 C25.7465614,19.9876656 24.8503754,21.0892926 24.2248864,22.6092019 C23.9402068,23.3110797 23.2634147,23.7666263 22.5025275,23.7666263 C21.7370623,23.7666263 21.0602702,23.3110797 20.7709131,22.6045934 C20.0473462,20.8382043 18.9504763,19.6343977 17.8862493,18.4723153 C17.6202299,18.1795028 17.3541607,17.8866408 17.0928187,17.5845122 C17.078836,17.5891703 17.0693815,17.5938283 17.0554984,17.5984368 C16.0192865,17.9098319 15.2210789,19.2764222 15.7018645,20.3873653 C16.0285917,21.1496489 18.3204093,21.0055965 18.1244029,22.6463671 C17.9610393,23.9896672 19.7252965,24.3429351 20.3507855,24.2779208 C20.9762746,24.2035407 21.937796,25.3005592 21.4523329,25.783955 C20.9716468,26.2674003 20.0613787,26.285983 20.2014046,27.5317119 C20.238725,27.8942464 21.3403719,27.8478146 21.3403719,28.3962743 C21.3403719,28.9493921 20.7709629,29.5769394 21.2096511,30.2137532 C21.3030515,30.3531476 21.4010299,30.4600844 21.5037355,30.5437309 C19.3939913,32.4774131 16.5793902,33.6626866 13.4940922,33.6626866 C6.97343134,33.6626866 1.67100612,28.3823002 1.67100612,21.8887415 C1.67100612,19.9179436 2.16114669,18.0585919 3.02464001,16.4224298 C3.01996253,18.5373792 4.15420253,20.2944027 4.68629116,20.8242797 C6.42263277,22.5487464 8.93852181,22.0048952 9.26052176,23.4504741 C9.58724897,24.8914444 7.53348536,24.8961024 7.66888358,25.9976799 C7.80885976,27.1039649 10.4834349,27.3968269 9.88601079,28.4147578 C9.09715816,29.767374 10.4180994,29.8649947 10.0353917,31.533664 C9.83003027,32.4447572 11.1509218,32.6213664 11.6410623,31.9288047 C12.0144649,31.3989276 11.9397744,30.7481397 12.6912569,29.9533488 C13.6107805,28.9771916 15.7439121,28.8191651 15.5058082,27.2061941 C15.0997629,24.5288604 12.4858955,24.110479 11.346978,23.4829317 C10.0540519,22.7764454 10.3714739,21.0798279 10.0913722,20.2710629 C9.69930953,19.1229546 8.3690133,20.5918236 7.65952861,19.922453 C6.49264575,18.8254841 7.86956753,17.2729685 8.84974914,17.3055252 C10.9174954,17.3705892 11.5522897,19.3739933 12.3130774,19.3042218 C13.0552547,19.2391579 13.5360403,18.2072528 13.6667113,17.6587931 C13.9421354,16.4642035 13.1999581,16.9987386 12.9012461,16.3758494 C12.4998284,15.5438437 14.3108605,14.7490033 15.0109902,14.1354302 C15.1183733,14.0424675 15.1976915,13.9541629 15.2396893,13.8704668 C15.4498277,13.4614511 15.1744036,13.1500064 14.7076007,12.8664605 C13.7741441,12.3039771 12.0704454,11.8577961 11.9911272,10.9793092 C11.9444021,10.4400665 12.9806638,10.1798108 14.1615293,10.1333294 C14.3575358,10.1426455 14.5489145,10.1612281 14.7450205,10.1798108 C14.8429989,9.62664346 15.001685,9.08279224 15.2164014,8.56223124 C14.6516201,8.48785123 14.0775337,8.45063644 13.4940425,8.45063644 C6.05385798,8.45063644 0,14.4793324 0,21.8885928 C-4.97604634e-05,29.298101 6.05385798,35.326797 13.4940425,35.326797 C20.934227,35.326797 26.9881845,29.2980515 26.9881845,21.8887911 C26.9881845,20.8847847 26.8761239,19.9040191 26.6614075,18.9650271 Z M21.867584,5.02984949 C18.058321,5.38841964 15.4492804,9.06416007 16.1141299,12.8166095 C16.7892799,16.6283252 20.3183915,17.8016067 22.0697607,22.0802663 C22.2276009,22.4658432 22.7727268,22.4677758 22.9304675,22.0821494 C24.8719217,17.3365954 29,16.4104874 29,11.4724175 C28.9999502,7.68983939 25.7416351,4.66518425 21.867584,5.02984949 Z M22.5004873,14.8905285 C20.6048127,14.8905285 19.0680603,13.360213 19.0680603,11.4724175 C19.0680603,9.58467152 20.6048127,8.05435598 22.5004873,8.05435598 C24.3961619,8.05435598 25.9328148,9.58467152 25.9328148,11.4724175 C25.9328148,13.3601634 24.3960624,14.8905285 22.5004873,14.8905285 Z" id="World"></path>
                        </g>
                    </g>
                </g>
            </g>
        </g>
    </g>
</svg>